<svg width="615" height="349" viewBox="0 0 615 349" fill="none" xmlns="http://www.w3.org/2000/svg">
<path d="M548.716 54.1748H548.706V147.748L548.716 147.721V283.578C548.716 294.06 550.725 302.647 554.743 309.338C558.873 315.917 564.23 320.824 570.815 324.058C577.512 327.18 584.655 328.741 592.245 328.741C595.928 328.741 599.109 328.463 601.788 327.905C604.578 327.348 607.202 326.623 609.657 325.73L614.68 344.298C611.555 345.413 608.095 346.361 604.3 347.142C600.505 348.034 596.04 348.479 590.905 348.479C580.191 348.479 570.034 346.082 560.436 341.287C550.948 336.492 543.247 329.522 537.331 320.378C531.416 311.234 528.458 300.193 528.458 287.258V105.602H490.453V87.3691H528.458V25.8135H548.716V54.1748ZM602.793 105.602H564.152L570.835 87.3691H602.793V105.602Z" fill="white"/>
<path d="M354.499 348.479C332.579 348.479 313.288 342.77 296.624 331.35C279.96 319.82 266.931 304.077 257.537 284.121C248.255 264.164 243.613 241.547 243.613 216.269C243.613 190.992 248.31 168.374 257.705 148.418C267.099 128.462 280.128 112.719 296.792 101.188C313.455 89.6582 332.635 83.8931 354.332 83.8931C370.66 83.8931 385.534 87.2191 398.954 93.8712C412.487 100.523 423.67 109.781 432.505 121.644C441.452 133.506 447.156 147.254 449.616 162.886H428.815C425.46 145.591 417.072 131.289 403.652 119.981C390.343 108.561 373.959 102.851 354.499 102.851C337.053 102.851 321.508 107.73 307.863 117.486C294.219 127.132 283.483 140.491 275.654 157.565C267.826 174.528 263.912 193.985 263.912 215.937C263.912 237.556 267.714 256.958 275.319 274.142C282.924 291.216 293.548 304.742 307.192 314.72C320.837 324.698 336.605 329.687 354.499 329.687C367.137 329.687 378.656 327.193 389.057 322.204C399.57 317.215 408.349 310.119 415.394 300.917C422.44 291.715 427.081 280.961 429.318 268.655H450.12C447.659 284.398 442.067 298.256 433.344 310.23C424.621 322.204 413.493 331.572 399.961 338.335C386.429 345.098 371.275 348.479 354.499 348.479Z" fill="white"/>
<path d="M20.4775 95.1934H20.4697L20.4775 115.234V127.278H20.4814L20.499 175.288C20.4856 175.97 20.4775 176.656 20.4775 177.347V345.253H0V0H20.4775V95.1934ZM99.1963 82.9414C116.54 82.9414 131.814 86.65 145.018 94.0674C158.221 101.373 168.516 111.882 175.901 125.593C183.398 139.191 187.146 155.487 187.146 174.48V345.253H166.838V175.323C166.838 153.183 160.292 135.426 147.2 122.052C134.108 108.678 116.82 101.991 95.3359 101.991C80.9013 101.991 68.033 105.138 56.7314 111.432C49.9627 115.201 44.0575 119.878 39.0146 125.462L49.6553 96.1406C50.2173 95.7823 50.7847 95.427 51.3604 95.0791C64.676 86.9872 80.6215 82.9414 99.1963 82.9414Z" fill="white"/>
</svg>
