<svg width="2159" height="349" viewBox="0 0 2159 349" fill="none" xmlns="http://www.w3.org/2000/svg">
<path d="M548.716 54.1748H548.706V147.748L548.716 147.721V283.578C548.716 294.06 550.725 302.647 554.743 309.338C558.873 315.917 564.23 320.824 570.815 324.058C577.512 327.18 584.655 328.741 592.245 328.741C595.928 328.741 599.109 328.463 601.788 327.905C604.578 327.348 607.202 326.623 609.657 325.73L614.68 344.298C611.555 345.413 608.095 346.361 604.3 347.142C600.505 348.034 596.04 348.479 590.905 348.479C580.191 348.479 570.034 346.082 560.436 341.287C550.948 336.492 543.247 329.522 537.331 320.378C531.416 311.234 528.458 300.193 528.458 287.258V105.602H490.453V87.3691H528.458V25.8135H548.716V54.1748ZM602.793 105.602H564.152L570.835 87.3691H602.793V105.602Z" fill="white"/>
<path d="M354.499 348.479C332.579 348.479 313.288 342.77 296.624 331.35C279.96 319.82 266.931 304.077 257.537 284.121C248.255 264.164 243.613 241.547 243.613 216.269C243.613 190.992 248.31 168.374 257.705 148.418C267.099 128.462 280.128 112.719 296.792 101.188C313.455 89.6582 332.635 83.8931 354.332 83.8931C370.66 83.8931 385.534 87.2191 398.954 93.8712C412.487 100.523 423.67 109.781 432.505 121.644C441.452 133.506 447.156 147.254 449.616 162.886H428.815C425.46 145.591 417.072 131.289 403.652 119.981C390.343 108.561 373.959 102.851 354.499 102.851C337.053 102.851 321.508 107.73 307.863 117.486C294.219 127.132 283.483 140.491 275.654 157.565C267.826 174.528 263.912 193.985 263.912 215.937C263.912 237.556 267.714 256.958 275.319 274.142C282.924 291.216 293.548 304.742 307.192 314.72C320.837 324.698 336.605 329.687 354.499 329.687C367.137 329.687 378.656 327.193 389.057 322.204C399.57 317.215 408.349 310.119 415.394 300.917C422.44 291.715 427.081 280.961 429.318 268.655H450.12C447.659 284.398 442.067 298.256 433.344 310.23C424.621 322.204 413.493 331.572 399.961 338.335C386.429 345.098 371.275 348.479 354.499 348.479Z" fill="white"/>
<path d="M20.4775 95.1934H20.4697L20.4775 115.234V127.278H20.4814L20.499 175.288C20.4856 175.97 20.4775 176.656 20.4775 177.347V345.253H0V0H20.4775V95.1934ZM99.1963 82.9414C116.54 82.9414 131.814 86.65 145.018 94.0674C158.221 101.373 168.516 111.882 175.901 125.593C183.398 139.191 187.146 155.487 187.146 174.48V345.253H166.838V175.323C166.838 153.183 160.292 135.426 147.2 122.052C134.108 108.678 116.82 101.991 95.3359 101.991C80.9013 101.991 68.033 105.138 56.7314 111.432C49.9627 115.201 44.0575 119.878 39.0146 125.462L49.6553 96.1406C50.2173 95.7823 50.7847 95.427 51.3604 95.0791C64.676 86.9872 80.6215 82.9414 99.1963 82.9414Z" fill="white"/>
<path d="M953.614 198.479V53.0245H971.227V117.797H1048.78V53.0245H1066.4V198.479H1048.78V133.422H971.227V198.479H953.614ZM1168.14 153.877V89.3881H1184.9V198.479H1168.14V180.013H1167C1164.44 185.553 1160.47 190.264 1155.07 194.147C1149.67 197.982 1142.85 199.899 1134.62 199.899C1127.8 199.899 1121.74 198.408 1116.43 195.425C1111.13 192.395 1106.96 187.849 1103.93 181.789C1100.9 175.681 1099.39 167.987 1099.39 158.706V89.3881H1116.15V157.57C1116.15 165.524 1118.37 171.869 1122.83 176.604C1127.32 181.339 1133.05 183.706 1140.01 183.706C1144.18 183.706 1148.42 182.641 1152.73 180.51C1157.08 178.38 1160.73 175.113 1163.66 170.709C1166.65 166.306 1168.14 160.695 1168.14 153.877ZM1215.6 198.479V89.3881H1231.79V106.434H1233.21C1235.49 100.61 1239.15 96.0879 1244.22 92.8682C1249.29 89.6012 1255.37 87.9676 1262.47 87.9676C1269.67 87.9676 1275.66 89.6012 1280.44 92.8682C1285.27 96.0879 1289.04 100.61 1291.74 106.434H1292.87C1295.67 100.799 1299.86 96.3246 1305.44 93.0103C1311.03 89.6485 1317.73 87.9676 1325.54 87.9676C1335.3 87.9676 1343.27 91.0216 1349.48 97.1296C1355.68 103.19 1358.78 112.636 1358.78 125.468V198.479H1342.02V125.468C1342.02 117.418 1339.82 111.666 1335.41 108.209C1331.01 104.753 1325.83 103.024 1319.86 103.024C1312.19 103.024 1306.25 105.345 1302.03 109.985C1297.82 114.577 1295.71 120.401 1295.71 127.456V198.479H1278.67V123.763C1278.67 117.56 1276.65 112.565 1272.63 108.777C1268.61 104.942 1263.42 103.024 1257.08 103.024C1252.72 103.024 1248.65 104.184 1244.86 106.505C1241.12 108.825 1238.09 112.044 1235.77 116.164C1233.5 120.236 1232.36 124.947 1232.36 130.297V198.479H1215.6ZM1421.53 201.036C1414.62 201.036 1408.34 199.734 1402.71 197.13C1397.07 194.478 1392.6 190.667 1389.28 185.695C1385.97 180.676 1384.31 174.615 1384.31 167.513C1384.31 161.263 1385.54 156.197 1388.01 152.314C1390.47 148.384 1393.76 145.307 1397.88 143.081C1402 140.856 1406.54 139.199 1411.51 138.11C1416.53 136.973 1421.58 136.074 1426.64 135.411C1433.27 134.559 1438.65 133.919 1442.76 133.493C1446.93 133.02 1449.96 132.238 1451.86 131.149C1453.8 130.06 1454.77 128.167 1454.77 125.468V124.899C1454.77 117.892 1452.85 112.447 1449.01 108.564C1445.23 104.682 1439.47 102.74 1431.76 102.74C1423.75 102.74 1417.48 104.492 1412.94 107.996C1408.39 111.5 1405.19 115.24 1403.35 119.218L1387.44 113.536C1390.28 106.907 1394.07 101.746 1398.8 98.0529C1403.58 94.3123 1408.79 91.7082 1414.43 90.2404C1420.11 88.7252 1425.7 87.9676 1431.19 87.9676C1434.69 87.9676 1438.72 88.3938 1443.26 89.246C1447.85 90.051 1452.28 91.7318 1456.54 94.2887C1460.85 96.8455 1464.43 100.704 1467.27 105.865C1470.11 111.026 1471.53 117.939 1471.53 126.604V198.479H1454.77V183.706H1453.92C1452.78 186.074 1450.89 188.607 1448.23 191.306C1445.58 194.005 1442.05 196.301 1437.65 198.195C1433.25 200.089 1427.87 201.036 1421.53 201.036ZM1424.09 185.979C1430.71 185.979 1436.3 184.677 1440.85 182.073C1445.44 179.469 1448.9 176.107 1451.22 171.988C1453.58 167.868 1454.77 163.536 1454.77 158.99V143.649C1454.06 144.502 1452.5 145.283 1450.08 145.993C1447.71 146.656 1444.97 147.248 1441.84 147.769C1438.76 148.242 1435.76 148.668 1432.82 149.047C1429.93 149.379 1427.59 149.663 1425.79 149.899C1421.43 150.468 1417.36 151.391 1413.57 152.669C1409.83 153.9 1406.8 155.771 1404.48 158.28C1402.21 160.742 1401.07 164.104 1401.07 168.365C1401.07 174.189 1403.23 178.593 1407.54 181.576C1411.89 184.511 1417.41 185.979 1424.09 185.979ZM1518.88 132.854V198.479H1502.12V89.3881H1518.32V106.434H1519.74C1522.29 100.894 1526.18 96.443 1531.38 93.0813C1536.59 89.6722 1543.32 87.9676 1551.55 87.9676C1558.94 87.9676 1565.4 89.4828 1570.94 92.5131C1576.48 95.496 1580.79 100.042 1583.87 106.149C1586.95 112.21 1588.49 119.881 1588.49 129.161V198.479H1571.72V130.297C1571.72 121.727 1569.5 115.051 1565.05 110.269C1560.6 105.439 1554.49 103.024 1546.72 103.024C1541.37 103.024 1536.59 104.184 1532.38 106.505C1528.21 108.825 1524.92 112.21 1522.51 116.661C1520.09 121.112 1518.88 126.509 1518.88 132.854ZM1791.84 98.479H1782.75C1781.8 93.5548 1780.03 88.7962 1777.42 84.2034C1774.82 79.5633 1771.46 75.3966 1767.34 71.7034C1763.27 67.9629 1758.53 65.0036 1753.13 62.8256C1747.74 60.6476 1741.77 59.5585 1735.24 59.5585C1725.67 59.5585 1716.87 62.1154 1708.82 67.229C1700.81 72.2953 1694.4 79.7527 1689.57 89.6012C1684.79 99.4496 1682.4 111.5 1682.4 125.752C1682.4 140.098 1684.79 152.196 1689.57 162.044C1694.4 171.893 1700.81 179.35 1708.82 184.417C1716.87 189.435 1725.67 191.945 1735.24 191.945C1741.77 191.945 1747.74 190.88 1753.13 188.749C1758.53 186.571 1763.27 183.635 1767.34 179.942C1771.46 176.202 1774.82 172.011 1777.42 167.371C1780.03 162.731 1781.8 157.949 1782.75 153.024H1791.84C1790.8 158.896 1788.79 164.649 1785.8 170.283C1782.87 175.917 1778.99 181.031 1774.16 185.624C1769.37 190.169 1763.72 193.792 1757.18 196.49C1750.7 199.142 1743.38 200.468 1735.24 200.468C1723.12 200.468 1712.44 197.39 1703.21 191.235C1693.97 185.032 1686.73 176.32 1681.47 165.098C1676.26 153.877 1673.66 140.761 1673.66 125.752C1673.66 110.742 1676.26 97.6267 1681.47 86.4051C1686.73 75.1835 1693.97 66.4951 1703.21 60.3398C1712.44 54.1371 1723.12 51.0358 1735.24 51.0358C1743.38 51.0358 1750.7 52.3852 1757.18 55.0841C1763.72 57.7356 1769.37 61.3341 1774.16 65.8796C1778.99 70.3777 1782.87 75.444 1785.8 81.0784C1788.79 86.7129 1790.8 92.5131 1791.84 98.479ZM1863.47 200.752C1854.47 200.752 1846.47 198.337 1839.46 193.507C1832.45 188.631 1826.94 181.931 1822.91 173.408C1818.89 164.885 1816.88 155.179 1816.88 144.289C1816.88 133.351 1818.89 123.645 1822.91 115.169C1826.94 106.647 1832.45 99.9468 1839.46 95.0699C1846.47 90.193 1854.47 87.7546 1863.47 87.7546C1872.46 87.7546 1880.47 90.193 1887.47 95.0699C1894.48 99.9468 1900 106.647 1904.02 115.169C1908.05 123.692 1910.06 133.399 1910.06 144.289C1910.06 155.179 1908.05 164.885 1904.02 173.408C1900 181.931 1894.48 188.631 1887.47 193.507C1880.47 198.337 1872.46 200.752 1863.47 200.752ZM1863.47 192.726C1871.09 192.726 1877.74 190.572 1883.43 186.263C1889.15 181.954 1893.58 176.131 1896.71 168.792C1899.88 161.452 1901.47 153.285 1901.47 144.289C1901.47 135.292 1899.88 127.149 1896.71 119.857C1893.53 112.518 1889.11 106.694 1883.43 102.385C1877.74 98.0292 1871.09 95.8512 1863.47 95.8512C1855.84 95.8512 1849.19 98.0292 1843.51 102.385C1837.83 106.694 1833.4 112.518 1830.23 119.857C1827.06 127.149 1825.47 135.292 1825.47 144.289C1825.47 153.285 1827.03 161.452 1830.16 168.792C1833.33 176.131 1837.76 181.954 1843.44 186.263C1849.17 190.572 1855.84 192.726 1863.47 192.726ZM1977.34 200.752C1968.58 200.752 1960.93 198.337 1954.39 193.507C1947.86 188.678 1942.79 182.025 1939.2 173.55C1935.64 165.027 1933.87 155.25 1933.87 144.218C1933.87 133.28 1935.67 123.574 1939.27 115.098C1942.91 106.576 1948 99.8995 1954.54 95.0699C1961.07 90.193 1968.69 87.7546 1977.41 87.7546C1983.66 87.7546 1989.08 88.962 1993.67 91.3767C1998.31 93.7442 2002.19 96.8928 2005.32 100.823C2008.49 104.753 2010.91 109.061 2012.56 113.749H2013.41V53.0245H2022.01V198.479H2013.63V174.686H2012.56C2010.81 179.374 2008.37 183.706 2005.25 187.684C2002.12 191.613 1998.24 194.786 1993.6 197.201C1988.96 199.568 1983.54 200.752 1977.34 200.752ZM1978.12 192.726C1985.5 192.726 1991.82 190.619 1997.08 186.405C2002.38 182.144 2006.43 176.367 2009.22 169.076C2012.07 161.737 2013.49 153.427 2013.49 144.147C2013.49 134.866 2012.07 126.604 2009.22 119.36C2006.43 112.068 2002.38 106.339 1997.08 102.172C1991.82 97.9582 1985.5 95.8512 1978.12 95.8512C1970.64 95.8512 1964.22 97.9818 1958.87 102.243C1953.57 106.457 1949.49 112.21 1946.65 119.502C1943.86 126.793 1942.46 135.008 1942.46 144.147C1942.46 153.285 1943.86 161.524 1946.65 168.863C1949.49 176.202 1953.57 182.025 1958.87 186.334C1964.22 190.595 1970.64 192.726 1978.12 192.726ZM2103.54 200.752C2093.69 200.752 2085.12 198.313 2077.83 193.436C2070.54 188.559 2064.91 181.883 2060.93 173.408C2056.95 164.933 2054.96 155.274 2054.96 144.431C2054.96 133.541 2056.95 123.834 2060.93 115.311C2064.95 106.789 2070.47 100.065 2077.48 95.1409C2084.48 90.2167 2092.49 87.7546 2101.48 87.7546C2107.59 87.7546 2113.37 88.9856 2118.81 91.4478C2124.3 93.8625 2129.13 97.3663 2133.3 101.959C2137.52 106.552 2140.81 112.092 2143.17 118.578C2145.59 125.065 2146.8 132.357 2146.8 140.453V145.851H2060.43V137.968H2138.13C2138.13 130.06 2136.52 122.934 2133.3 116.59C2130.08 110.245 2125.7 105.202 2120.16 101.462C2114.62 97.7214 2108.4 95.8512 2101.48 95.8512C2094.24 95.8512 2087.78 97.8871 2082.09 101.959C2076.46 105.984 2071.98 111.429 2068.67 118.294C2065.4 125.16 2063.7 132.83 2063.56 141.306V144.857C2063.56 153.948 2065.14 162.115 2068.32 169.36C2071.54 176.557 2076.13 182.262 2082.09 186.476C2088.06 190.643 2095.21 192.726 2103.54 192.726C2109.51 192.726 2114.6 191.732 2118.81 189.743C2123.07 187.707 2126.55 185.245 2129.25 182.357C2131.95 179.469 2133.99 176.675 2135.36 173.976L2143.24 177.172C2141.59 180.818 2139.01 184.464 2135.5 188.11C2132.05 191.708 2127.64 194.715 2122.29 197.13C2116.99 199.544 2110.74 200.752 2103.54 200.752Z" fill="white"/>
<path d="M979.267 262.934V266.804H955.439V262.934H979.267ZM963.5 249.865H967.797V304.588C967.797 306.814 968.223 308.637 969.075 310.057C969.951 311.454 971.088 312.496 972.484 313.182C973.905 313.845 975.42 314.176 977.03 314.176C977.811 314.176 978.486 314.117 979.054 313.999C979.646 313.881 980.202 313.727 980.723 313.537L981.788 317.479C981.125 317.716 980.392 317.917 979.587 318.083C978.782 318.272 977.835 318.367 976.746 318.367C974.473 318.367 972.319 317.858 970.283 316.84C968.27 315.822 966.637 314.342 965.382 312.401C964.127 310.46 963.5 308.116 963.5 305.37V249.865ZM1016.02 318.615C1011.1 318.615 1006.81 317.396 1003.17 314.958C999.52 312.519 996.703 309.181 994.714 304.943C992.726 300.706 991.732 295.876 991.732 290.455C991.732 285.01 992.726 280.157 994.714 275.895C996.727 271.634 999.485 268.272 1002.99 265.81C1006.49 263.348 1010.49 262.117 1014.99 262.117C1018.05 262.117 1020.93 262.732 1023.66 263.963C1026.4 265.171 1028.82 266.923 1030.9 269.219C1033.01 271.515 1034.65 274.285 1035.84 277.529C1037.04 280.772 1037.65 284.418 1037.65 288.466V291.165H994.466V287.223H1033.32C1033.32 283.27 1032.51 279.707 1030.9 276.534C1029.29 273.362 1027.1 270.841 1024.33 268.97C1021.56 267.1 1018.45 266.165 1014.99 266.165C1011.37 266.165 1008.14 267.183 1005.3 269.219C1002.48 271.231 1000.24 273.954 998.585 277.387C996.952 280.819 996.099 284.655 996.028 288.892V290.668C996.028 295.213 996.821 299.297 998.408 302.919C1000.02 306.518 1002.31 309.371 1005.3 311.478C1008.28 313.561 1011.85 314.603 1016.02 314.603C1019 314.603 1021.55 314.105 1023.66 313.111C1025.79 312.093 1027.53 310.862 1028.88 309.418C1030.23 307.974 1031.24 306.577 1031.93 305.228L1035.87 306.826C1035.04 308.649 1033.75 310.471 1032 312.294C1030.27 314.094 1028.07 315.597 1025.4 316.804C1022.74 318.012 1019.62 318.615 1016.02 318.615ZM1073.02 318.615C1068.38 318.615 1064.29 317.396 1060.77 314.958C1057.24 312.496 1054.48 309.134 1052.49 304.872C1050.53 300.611 1049.54 295.782 1049.54 290.384C1049.54 284.986 1050.54 280.157 1052.53 275.895C1054.52 271.634 1057.27 268.272 1060.8 265.81C1064.33 263.348 1068.39 262.117 1072.98 262.117C1076.44 262.117 1079.59 262.827 1082.43 264.247C1085.29 265.668 1087.66 267.645 1089.53 270.178C1091.42 272.711 1092.63 275.647 1093.15 278.985H1088.75C1088.04 275.292 1086.26 272.238 1083.42 269.823C1080.6 267.384 1077.14 266.165 1073.02 266.165C1069.32 266.165 1066.03 267.207 1063.14 269.29C1060.26 271.35 1057.98 274.202 1056.33 277.848C1054.67 281.47 1053.84 285.625 1053.84 290.313C1053.84 294.929 1054.65 299.072 1056.26 302.742C1057.87 306.388 1060.11 309.276 1063 311.407C1065.89 313.537 1069.23 314.603 1073.02 314.603C1075.69 314.603 1078.13 314.07 1080.33 313.005C1082.56 311.939 1084.42 310.424 1085.91 308.459C1087.4 306.494 1088.38 304.198 1088.86 301.57H1093.26C1092.74 304.932 1091.55 307.891 1089.71 310.448C1087.86 313.005 1085.51 315.005 1082.64 316.449C1079.78 317.893 1076.57 318.615 1073.02 318.615ZM1112.36 282.11V317.479H1108.03V244.752H1112.36V271.563H1112.79C1114.07 268.722 1116.1 266.461 1118.9 264.78C1121.71 263.076 1125.09 262.223 1129.02 262.223C1132.69 262.223 1135.92 263.005 1138.71 264.567C1141.51 266.106 1143.68 268.319 1145.25 271.208C1146.83 274.072 1147.63 277.505 1147.63 281.506V317.479H1143.33V281.684C1143.33 277.02 1141.94 273.279 1139.17 270.462C1136.4 267.645 1132.75 266.236 1128.2 266.236C1125.15 266.236 1122.43 266.899 1120.03 268.225C1117.64 269.55 1115.76 271.409 1114.39 273.8C1113.04 276.167 1112.36 278.937 1112.36 282.11ZM1169.88 282.11V317.479H1165.55V262.934H1169.78V271.563H1170.2C1171.48 268.746 1173.53 266.485 1176.35 264.78C1179.16 263.076 1182.51 262.223 1186.4 262.223C1190.07 262.223 1193.29 263.005 1196.06 264.567C1198.85 266.13 1201.03 268.355 1202.59 271.243C1204.18 274.108 1204.97 277.529 1204.97 281.506V317.479H1200.64V281.684C1200.64 277.043 1199.25 273.315 1196.48 270.497C1193.73 267.657 1190.1 266.236 1185.58 266.236C1182.55 266.236 1179.85 266.899 1177.48 268.225C1175.12 269.55 1173.26 271.409 1171.91 273.8C1170.56 276.167 1169.88 278.937 1169.88 282.11ZM1243.25 318.615C1238.75 318.615 1234.75 317.408 1231.25 314.993C1227.74 312.555 1224.98 309.205 1222.97 304.943C1220.96 300.682 1219.95 295.829 1219.95 290.384C1219.95 284.915 1220.96 280.062 1222.97 275.824C1224.98 271.563 1227.74 268.213 1231.25 265.774C1234.75 263.336 1238.75 262.117 1243.25 262.117C1247.75 262.117 1251.75 263.336 1255.25 265.774C1258.76 268.213 1261.51 271.563 1263.53 275.824C1265.54 280.086 1266.55 284.939 1266.55 290.384C1266.55 295.829 1265.54 300.682 1263.53 304.943C1261.51 309.205 1258.76 312.555 1255.25 314.993C1251.75 317.408 1247.75 318.615 1243.25 318.615ZM1243.25 314.603C1247.06 314.603 1250.39 313.525 1253.23 311.371C1256.09 309.217 1258.31 306.305 1259.87 302.635C1261.46 298.966 1262.25 294.882 1262.25 290.384C1262.25 285.886 1261.46 281.814 1259.87 278.168C1258.28 274.498 1256.07 271.586 1253.23 269.432C1250.39 267.254 1247.06 266.165 1243.25 266.165C1239.44 266.165 1236.11 267.254 1233.27 269.432C1230.43 271.586 1228.22 274.498 1226.63 278.168C1225.04 281.814 1224.25 285.886 1224.25 290.384C1224.25 294.882 1225.03 298.966 1226.59 302.635C1228.18 306.305 1230.39 309.217 1233.24 311.371C1236.1 313.525 1239.44 314.603 1243.25 314.603ZM1285.8 244.752V317.479H1281.47V244.752H1285.8ZM1324.01 318.615C1319.51 318.615 1315.51 317.408 1312.01 314.993C1308.5 312.555 1305.75 309.205 1303.73 304.943C1301.72 300.682 1300.72 295.829 1300.72 290.384C1300.72 284.915 1301.72 280.062 1303.73 275.824C1305.75 271.563 1308.5 268.213 1312.01 265.774C1315.51 263.336 1319.51 262.117 1324.01 262.117C1328.51 262.117 1332.51 263.336 1336.01 265.774C1339.52 268.213 1342.28 271.563 1344.29 275.824C1346.3 280.086 1347.31 284.939 1347.31 290.384C1347.31 295.829 1346.3 300.682 1344.29 304.943C1342.28 309.205 1339.52 312.555 1336.01 314.993C1332.51 317.408 1328.51 318.615 1324.01 318.615ZM1324.01 314.603C1327.82 314.603 1331.15 313.525 1333.99 311.371C1336.85 309.217 1339.07 306.305 1340.63 302.635C1342.22 298.966 1343.01 294.882 1343.01 290.384C1343.01 285.886 1342.22 281.814 1340.63 278.168C1339.04 274.498 1336.83 271.586 1333.99 269.432C1331.15 267.254 1327.82 266.165 1324.01 266.165C1320.2 266.165 1316.87 267.254 1314.03 269.432C1311.19 271.586 1308.98 274.498 1307.39 278.168C1305.81 281.814 1305.01 285.886 1305.01 290.384C1305.01 294.882 1305.79 298.966 1307.36 302.635C1308.94 306.305 1311.16 309.217 1314 311.371C1316.86 313.525 1320.2 314.603 1324.01 314.603ZM1381.9 339.07C1378.52 339.07 1375.48 338.62 1372.78 337.72C1370.08 336.845 1367.78 335.59 1365.89 333.956C1364.02 332.323 1362.59 330.381 1361.59 328.132L1365.21 326.002C1366.02 327.754 1367.17 329.316 1368.66 330.689C1370.15 332.062 1372 333.14 1374.2 333.921C1376.42 334.702 1378.99 335.093 1381.9 335.093C1387.16 335.093 1391.31 333.731 1394.37 331.009C1397.45 328.31 1398.98 324.167 1398.98 318.58V305.015H1398.56C1397.73 307.382 1396.5 309.489 1394.87 311.336C1393.26 313.158 1391.28 314.591 1388.94 315.632C1386.59 316.674 1383.93 317.195 1380.94 317.195C1376.64 317.195 1372.85 316.082 1369.58 313.857C1366.31 311.631 1363.77 308.506 1361.95 304.482C1360.12 300.434 1359.21 295.675 1359.21 290.206C1359.21 284.738 1360.1 279.896 1361.88 275.682C1363.67 271.444 1366.21 268.13 1369.47 265.739C1372.74 263.324 1376.58 262.117 1380.98 262.117C1384.13 262.117 1386.85 262.72 1389.15 263.928C1391.47 265.112 1393.41 266.686 1394.97 268.651C1396.53 270.616 1397.74 272.77 1398.59 275.114H1399.09V262.934H1403.28V318.757C1403.28 323.303 1402.38 327.079 1400.58 330.086C1398.81 333.092 1396.31 335.341 1393.09 336.833C1389.89 338.324 1386.17 339.07 1381.9 339.07ZM1381.34 313.182C1384.98 313.182 1388.12 312.259 1390.75 310.412C1393.4 308.542 1395.43 305.89 1396.85 302.458C1398.3 299.001 1399.02 294.906 1399.02 290.171C1399.02 285.578 1398.32 281.47 1396.93 277.848C1395.53 274.226 1393.5 271.373 1390.85 269.29C1388.2 267.207 1385.03 266.165 1381.34 266.165C1377.57 266.165 1374.36 267.23 1371.71 269.361C1369.06 271.468 1367.02 274.333 1365.6 277.955C1364.21 281.577 1363.51 285.649 1363.51 290.171C1363.51 294.716 1364.22 298.717 1365.64 302.174C1367.06 305.606 1369.1 308.305 1371.75 310.27C1374.4 312.211 1377.6 313.182 1381.34 313.182ZM1424.99 337.934C1423.9 337.934 1422.82 337.815 1421.76 337.578C1420.69 337.342 1419.73 337.034 1418.88 336.655L1420.16 332.855C1422.38 333.708 1424.4 334.015 1426.2 333.779C1428.02 333.542 1429.63 332.713 1431.02 331.293C1432.42 329.872 1433.61 327.789 1434.58 325.043L1437.06 318.225L1417.07 262.934H1421.72L1439.05 311.904H1439.41L1456.74 262.934H1461.39L1438.38 326.747C1437.5 329.21 1436.4 331.269 1435.07 332.926C1433.75 334.584 1432.23 335.827 1430.53 336.655C1428.85 337.507 1427 337.934 1424.99 337.934Z" fill="white"/>
<line x1="815.5" y1="41.479" x2="815.5" y2="329.479" stroke="white" stroke-width="3"/>
</svg>
