<svg width="64" height="64" viewBox="0 0 64 64" fill="none" xmlns="http://www.w3.org/2000/svg">
<rect width="64" height="64" rx="11" fill="black"/>
<path d="M24.9502 27.1201H24.9512L24.9521 31.7744C24.9517 31.8119 24.9502 31.8499 24.9502 31.8877V47.875H23V15H24.9502V27.1201ZM32.4453 22.8984C34.0967 22.8984 35.5514 23.2508 36.8086 23.957C38.0658 24.6526 39.0458 25.6536 39.749 26.959C40.4629 28.2538 40.8203 29.8058 40.8203 31.6143V47.875H38.8867V31.6943C38.8867 29.5863 38.2631 27.8955 37.0166 26.6221C35.77 25.3486 34.1238 24.712 32.0781 24.7119C30.7038 24.7119 29.4784 25.0112 28.4023 25.6104C27.7583 25.969 27.1958 26.4142 26.7158 26.9453L27.7295 24.1543C27.7826 24.1204 27.8362 24.0866 27.8906 24.0537C29.1585 23.2832 30.6767 22.8985 32.4453 22.8984Z" fill="white"/>
</svg>
